<svg aria-hidden="true" style="position: absolute; width: 0; height: 0; overflow: hidden;" version="1.1" xmlns="http://www.w3.org/2000/svg" xmlns:xlink="http://www.w3.org/1999/xlink">
<defs>

<!--icon-search-->
<symbol id="icon-search" viewBox="0 0 32 32">
<path d="M31.008 27.231l-7.58-6.447c-0.784-0.705-1.622-1.029-2.299-0.998 1.789-2.096 2.87-4.815 2.87-7.787 0-6.627-5.373-12-12-12s-12 5.373-12 12 5.373 12 12 12c2.972 0 5.691-1.081 7.787-2.87-0.031 0.677 0.293 1.515 0.998 2.299l6.447 7.58c1.104 1.226 2.907 1.33 4.007 0.23s0.997-2.903-0.23-4.007zM12 20c-4.418 0-8-3.582-8-8s3.582-8 8-8 8 3.582 8 8-3.582 8-8 8z"></path>
</symbol>
<!--icon-search-->


<!--icon-user-->
<symbol id="icon-user" viewBox="0 0 20 20">
<path d="M5 5c0-2.761 2.239-5 5-5s5 2.239 5 5v0 2c0 2.761-2.239 5-5 5s-5-2.239-5-5v0-2zM0 16.68c2.86-1.685 6.301-2.68 9.974-2.68 0.009 0 0.018 0 0.027 0h-0.001c3.64 0 7.060 0.97 10 2.68v3.32h-20v-3.32z"></path>
</symbol>
<!--icon-user-->


<!--icon-cart-->
<symbol id="icon-cart" viewBox="0 0 32 32">
<path d="M12 29c0 1.657-1.343 3-3 3s-3-1.343-3-3c0-1.657 1.343-3 3-3s3 1.343 3 3z"></path>
<path d="M32 29c0 1.657-1.343 3-3 3s-3-1.343-3-3c0-1.657 1.343-3 3-3s3 1.343 3 3z"></path>
<path d="M32 16v-12h-24c0-1.105-0.895-2-2-2h-6v2h4l1.502 12.877c-0.915 0.733-1.502 1.859-1.502 3.123 0 2.209 1.791 4 4 4h24v-2h-24c-1.105 0-2-0.895-2-2 0-0.007 0-0.014 0-0.020l26-3.98z"></path>
</symbol>
<!--icon-cart-->

<!-- logo -->
<symbol id="logo" viewBox="0 0 123.055 52.91">
<g id="Group_152" data-name="Group 152" transform="translate(-69.674 -60.653)">
    <g id="Group_92" data-name="Group 92">
      <path id="Path_93" data-name="Path 93" d="M26.263,0C32.515,0,34.73,4.634,38.7,9.015c2.518,2.781,2.587,3.509,4.8,7.153.041.066-.121,2.241,0,2.453,1.52,2.651,5.62,5.986,5.62,9.5,0,14.723-8.87,23.4-22.856,23.4S2.01,40.905,2.01,26.183,12.277,0,26.263,0Z" transform="translate(69.905 62.038)" fill="#fff"/>
      <path id="Path_67" data-name="Path 67" d="M974.666,161.282c2.515,4.593-2.326,9,.865,11.241,3.977,2.788,6.787-5.139,7.228-10.569.273-3.365.958-13.423-5.223-15.153a4.122,4.122,0,0,0-4.1.68c-2.966,2.215-3.551,5.426-2.351,7.017C972.147,155.9,973.421,159.006,974.666,161.282Z" transform="translate(-865.734 -65.096)" fill="#9b9997"/>
      <path id="Path_68" data-name="Path 68" d="M810.914,96.821c5.185,8.219,19.212,10.742,19.212,5.89,0-4.458-23.834-12.142-10.971-29.859,3.777-5.2,19.227-4.1,20.22-9.542,1.776-9.727-17.4-10.121-24.678-4.666C811.2,61.263,797.682,75.845,810.914,96.821Z" transform="translate(-735.55 6.914)" fill="#cbaf6d"/>
      <path id="Path_69" data-name="Path 69" d="M847.855,67.037s2.887,4.528,7.359,0c0,0,2.038-4.981-4.019-6.057l-4.7-7.925s-3.623-4.189-9.283-.566c0,0-5.66,2.921-5.547,11.083,0,0,.113,4.37,4.189,4.143,0,0,3.623-.113,3.623-6.057,0,0-.34-7.755-9.453-6.962,0,0-6.566-.906-12.623,13.528a27.853,27.853,0,0,0,2.491,23.944s6.736,9.978,18.736,9.942c0,0,18.963,1.606,22.415-14.13,0,0,2.151-13.019-4.812-17.717l-2.377,5.151s-5.094-2.151-9,.509l-3-6-2.83,6.17" transform="translate(-743.86 10.151)" fill="none" stroke="#707070" stroke-miterlimit="10" stroke-width="1"/>
      <ellipse id="Ellipse_12" data-name="Ellipse 12" cx="0.559" cy="0.559" rx="0.559" ry="0.559" transform="translate(100.779 69.127)" stroke="#000" stroke-miterlimit="10" stroke-width="0.5"/>
      <ellipse id="Ellipse_15" data-name="Ellipse 15" cx="0.559" cy="0.559" rx="0.559" ry="0.559" transform="translate(100.779 69.127)" fill="gray" stroke="gray" stroke-miterlimit="10" stroke-width="0.5"/>
      <ellipse id="Ellipse_13" data-name="Ellipse 13" cx="0.573" cy="0.573" rx="0.573" ry="0.573" transform="translate(99.716 91.768)" stroke="#000" stroke-miterlimit="10" stroke-width="0.5"/>
      <ellipse id="Ellipse_17" data-name="Ellipse 17" cx="0.573" cy="0.573" rx="0.573" ry="0.573" transform="translate(99.716 91.768)" fill="gray" stroke="gray" stroke-miterlimit="10" stroke-width="0.5"/>
      <ellipse id="Ellipse_14" data-name="Ellipse 14" cx="0.559" cy="0.559" rx="0.559" ry="0.559" transform="translate(109.64 91.223)" stroke="#000" stroke-miterlimit="10" stroke-width="0.5"/>
      <ellipse id="Ellipse_16" data-name="Ellipse 16" cx="0.559" cy="0.559" rx="0.559" ry="0.559" transform="translate(109.64 91.223)" fill="gray" stroke="gray" stroke-miterlimit="10" stroke-width="0.5"/>
      <path id="Path_70" data-name="Path 70" d="M971.7,218.215s1.017-.2,1.162,0-1.162,1.578-1.162,1.578-1.308-1.381-1.162-1.578S971.7,218.215,971.7,218.215Z" transform="translate(-865.751 -121.477)" stroke="#000" stroke-miterlimit="10" stroke-width="0.25"/>
      <path id="Path_90" data-name="Path 90" d="M971.7,218.215s1.017-.2,1.162,0-1.162,1.578-1.162,1.578-1.308-1.381-1.162-1.578S971.7,218.215,971.7,218.215Z" transform="translate(-865.751 -121.477)" fill="gray" stroke="gray" stroke-miterlimit="10" stroke-width="0.25"/>
      <path id="Path_71" data-name="Path 71" d="M953.8,222.633s.1,4.771-5.991,2.432" transform="translate(-847.855 -125.026)" fill="none" stroke="#000" stroke-miterlimit="10" stroke-width="0.5"/>
      <path id="Path_91" data-name="Path 91" d="M953.8,222.633s.1,4.771-5.991,2.432" transform="translate(-847.855 -125.026)" fill="none" stroke="gray" stroke-miterlimit="10" stroke-width="0.5"/>
      <path id="Path_72" data-name="Path 72" d="M974.483,222.633s-.1,4.771,5.992,2.432" transform="translate(-868.867 -125.026)" fill="none" stroke="#000" stroke-miterlimit="10" stroke-width="0.5"/>
      <path id="Path_92" data-name="Path 92" d="M974.483,222.633s-.1,4.771,5.992,2.432" transform="translate(-868.867 -125.026)" fill="none" stroke="gray" stroke-miterlimit="10" stroke-width="0.5"/>
      <path id="Path_73" data-name="Path 73" d="M991.9,111.544s1.017-.2,1.162,0-1.162,1.578-1.162,1.578-1.307-1.381-1.162-1.578S991.9,111.544,991.9,111.544Z" transform="translate(-881.661 -37.457)" stroke="#000" stroke-miterlimit="10" stroke-width="0.25"/>
      <path id="Path_87" data-name="Path 87" d="M991.9,111.544s1.017-.2,1.162,0-1.162,1.578-1.162,1.578-1.307-1.381-1.162-1.578S991.9,111.544,991.9,111.544Z" transform="translate(-881.661 -37.457)" fill="gray" stroke="gray" stroke-miterlimit="10" stroke-width="0.25"/>
      <text id="Pet_Love" data-name="Pet Love" transform="translate(127.508 108.835)" fill="gray" font-size="8" font-family="Poppins-ExtraLight, Poppins" font-weight="200" letter-spacing="0.569em"><tspan x="0" y="0">Pet Love</tspan></text>
      <g id="Group_90" data-name="Group 90" transform="translate(127.357 64.344)">
        <g id="Group_87" data-name="Group 87" transform="translate(0 0.291)">
          <path id="Path_74" data-name="Path 74" d="M603.086,424.5a56.111,56.111,0,0,1-5.625,11.216.71.71,0,0,1-1,.18l-.04-.028a.7.7,0,0,1-.171-.97,48.049,48.049,0,0,0,5.51-10.883.706.706,0,0,1,1.1-.331h0A.716.716,0,0,1,603.086,424.5Z" transform="translate(-596.124 -405.757)" fill="gray"/>
          <path id="Path_75" data-name="Path 75" d="M605.634,384.47l-.073.091a.673.673,0,0,1-.977.076,39.168,39.168,0,0,0-5.134-3.944.669.669,0,0,1-.159-1h0a.672.672,0,0,1,.872-.143,46.894,46.894,0,0,1,5.38,3.983A.678.678,0,0,1,605.634,384.47Z" transform="translate(-598.533 -370.474)" fill="gray"/>
          <path id="Path_76" data-name="Path 76" d="M611.321,339.59l-.055.063a.658.658,0,0,1-.937.055,44.739,44.739,0,0,0-5.211-3.98.661.661,0,0,1-.168-.952h0a.667.667,0,0,1,.9-.154,58.121,58.121,0,0,1,5.407,4.024A.664.664,0,0,1,611.321,339.59Z" transform="translate(-603.08 -334.514)" fill="gray"/>
          <path id="Path_77" data-name="Path 77" d="M649.056,336.77a49.684,49.684,0,0,1-14.528,2.945.67.67,0,0,0-.624.664v10.329a22.918,22.918,0,0,1-4.68,14.472.672.672,0,0,1-.91.135l-.092-.063a.669.669,0,0,1-.13-.977,20.825,20.825,0,0,0,4.412-13.566V339.2a.671.671,0,0,1,.638-.666q9.8-.51,15.389-2.987a.662.662,0,0,1,.749.143h0A.667.667,0,0,1,649.056,336.77Z" transform="translate(-621.581 -335.292)" fill="gray"/>
          <path id="Path_78" data-name="Path 78" d="M684.361,366.613a40.639,40.639,0,0,1-10.682,2.616.528.528,0,0,0-.467.521v17.128a.527.527,0,0,0,.727.489,28.844,28.844,0,0,0,4.081-2.19.528.528,0,0,1,.793.288l.053.178a.535.535,0,0,1-.241.612,60.585,60.585,0,0,1-6.33,3.273.527.527,0,0,1-.668-.225l-.141-.246a.561.561,0,0,1,.083-.634,1.289,1.289,0,0,0,.243-.827V368.65a.53.53,0,0,1,.479-.523,36.7,36.7,0,0,0,11.49-2.677.522.522,0,0,1,.639.157l.151.2A.528.528,0,0,1,684.361,366.613Z" transform="translate(-656.38 -359.231)" fill="gray"/>
          <path id="Path_79" data-name="Path 79" d="M710.918,414.707l-.035.036a.665.665,0,0,1-.9.045q-6.962-5.956-8.115-16.979a.668.668,0,0,1,.509-.716h0a.66.66,0,0,1,.807.577,34.241,34.241,0,0,0,.886,4.883.663.663,0,0,0,1.071.325,26.039,26.039,0,0,0,4.383-4.581.662.662,0,0,1,.951-.137l.04.032a.663.663,0,0,1,.108.929,38.04,38.04,0,0,1-5.506,5.386.67.67,0,0,0-.2.749,20.426,20.426,0,0,0,5.951,8.476A.663.663,0,0,1,710.918,414.707Z" transform="translate(-680.74 -384.578)" fill="gray"/>
        </g>
        <g id="Group_86" data-name="Group 86" transform="translate(34.991 0)">
          <path id="Path_63" data-name="Path 63" d="M1664.574,65.715c-.17.438-.329.881-.52,1.31a.334.334,0,0,1-.3.126c-.094-.026-.243-.2-.222-.248.2-.465.422-.917.64-1.373Z" transform="translate(-1650.867 -54.198)" fill="none"/>
          <path id="Path_66" data-name="Path 66" d="M1664.547,60.772c-.31-.112-.622-.219-.924-.35a3.092,3.092,0,0,1,.109-.355l.957.316Z" transform="translate(-1650.939 -49.837)" fill="none"/>
          <path id="Path_80" data-name="Path 80" d="M783.453,452.879a43.963,43.963,0,0,1-9.578,4.781.7.7,0,0,1-.821-.283h0a.688.688,0,0,1,.366-1.02,38.742,38.742,0,0,0,9.236-4.652.688.688,0,0,1,.932.144l.024.031A.693.693,0,0,1,783.453,452.879Z" transform="translate(-772.617 -427.908)" fill="gray"/>
          <path id="Path_81" data-name="Path 81" d="M801.024,424.8h-13.2a.64.64,0,0,0-.64.64v8.063a.641.641,0,0,1-.641.641h-.12a.641.641,0,0,1-.641-.641v-8.063a.64.64,0,0,0-.641-.64h-13.2a.64.64,0,0,1-.64-.641h0a.64.64,0,0,1,.64-.641h13.2a.64.64,0,0,0,.641-.64v-1.145a.641.641,0,0,1,.641-.641h.12a.641.641,0,0,1,.641.641v1.145a.64.64,0,0,0,.64.64h13.2a.64.64,0,0,1,.641.641h0A.64.64,0,0,1,801.024,424.8Z" transform="translate(-771.293 -403.51)" fill="gray"/>
          <path id="Path_82" data-name="Path 82" d="M782.924,350.754l-.039.019a.675.675,0,0,1-.946-.4l-.184-.585a.68.68,0,0,0-.756-.462q-4.175.673-6.871,1.053a.674.674,0,0,1-.746-.5l-.056-.217a.665.665,0,0,1,.183-.65,45.377,45.377,0,0,0,4.619-5.256.678.678,0,0,0-.618-1.084l-3.05.37a.675.675,0,0,1-.739-.518l-.041-.177a.666.666,0,0,1,.156-.6,31.226,31.226,0,0,0,4.539-7.438.679.679,0,0,1,.853-.351l.015.006a.678.678,0,0,1,.363.936,41.871,41.871,0,0,1-3.3,5.588.674.674,0,0,0,.627,1.057q1.893-.206,2.748-.321a.655.655,0,0,0,.462-.285q.678-1,1.521-2.392a.677.677,0,0,1,.924-.234h0a.679.679,0,0,1,.222.95,58.056,58.056,0,0,1-6.339,8.356.673.673,0,0,0,.583,1.131q2.08-.285,3.245-.461a.672.672,0,0,0,.51-.945l-.42-.928a.675.675,0,0,1,.327-.889h0a.674.674,0,0,1,.891.3,29.646,29.646,0,0,1,1.661,4.109A.681.681,0,0,1,782.924,350.754Z" transform="translate(-772.903 -333.745)" fill="gray"/>
          <path id="Path_83" data-name="Path 83" d="M832.6,335.408q.382-.705.663-1.342a.721.721,0,0,0-.515-.992h0a.727.727,0,0,0-.82.439,22.572,22.572,0,0,1-1.271,2.615.719.719,0,0,1-.627.356H828.8a.723.723,0,0,0-.723.723v11.571a.723.723,0,0,0,.723.723h6.566a.723.723,0,0,0,.723-.723V337.206a.723.723,0,0,0-.723-.723h-2.13A.724.724,0,0,1,832.6,335.408Zm1.36,12.793H830.2a.723.723,0,0,1-.723-.723V344.09a.723.723,0,0,1,.723-.723h3.764a.723.723,0,0,1,.723.723v3.388A.723.723,0,0,1,833.961,348.2Zm0-6.15H830.2a.723.723,0,0,1-.723-.723v-2.791a.723.723,0,0,1,.723-.723h3.764a.723.723,0,0,1,.723.723v2.791A.723.723,0,0,1,833.961,342.051Z" transform="translate(-816.731 -333.058)" fill="gray"/>
          <path id="Path_84" data-name="Path 84" d="M878.234,456.795l-.042.053a.7.7,0,0,1-.933.156,74.046,74.046,0,0,0-8.928-4.856.706.706,0,0,1-.258-1.08h0a.708.708,0,0,1,.841-.2,77.562,77.562,0,0,1,9.136,4.894A.71.71,0,0,1,878.234,456.795Z" transform="translate(-848.619 -427.282)" fill="gray"/>
          <path id="Path_85" data-name="Path 85" d="M883.122,350.757l-.041.021a.678.678,0,0,1-.952-.408l-.176-.575a.679.679,0,0,0-.744-.473l-6.776.962a.678.678,0,0,1-.75-.494l-.064-.233a.669.669,0,0,1,.181-.658,40.114,40.114,0,0,0,4.421-5.172.681.681,0,0,0-.63-1.079l-3.248.4a.679.679,0,0,1-.745-.521l-.037-.164a.67.67,0,0,1,.164-.609,29.15,29.15,0,0,0,4.529-7.427.681.681,0,0,1,.859-.357h0a.683.683,0,0,1,.366.944,46.309,46.309,0,0,1-3.335,5.566.675.675,0,0,0,.636,1.056l2.854-.341a.69.69,0,0,0,.5-.315q.8-1.262,1.415-2.313a.676.676,0,0,1,.929-.237h0a.683.683,0,0,1,.233.94,52.693,52.693,0,0,1-6,8.3.677.677,0,0,0,.579,1.133q1.7-.2,3.148-.414a.68.68,0,0,0,.513-.966q-.208-.445-.426-.877a.678.678,0,0,1,.319-.925h0a.68.68,0,0,1,.886.3,25.481,25.481,0,0,1,1.746,4.131A.673.673,0,0,1,883.122,350.757Z" transform="translate(-853.119 -333.755)" fill="gray"/>
        </g>
      </g>
    </g>
  </g>
</symbol>
<!-- logo -->


<!-- icon-user -->
<symbol id="icon-user" viewBox="0 0 20 20">
<path d="M5 5c0-2.761 2.239-5 5-5s5 2.239 5 5v0 2c0 2.761-2.239 5-5 5s-5-2.239-5-5v0-2zM0 16.68c2.86-1.685 6.301-2.68 9.974-2.68 0.009 0 0.018 0 0.027 0h-0.001c3.64 0 7.060 0.97 10 2.68v3.32h-20v-3.32z"></path>
</symbol>
<!-- icon-user -->


<!-- icon-star -->
<symbol id="icon-star" viewBox="0 0 32 32">
<path d="M12.711 25.965c-6.578 5.24-8.352 3.973-5.321-3.807-8.45 0.436-9.128-1.619-2.033-6.158-7.095-4.54-6.417-6.593 2.033-6.159-3.030-7.779-1.256-9.048 5.321-3.806 2.192-8.046 4.385-8.046 6.578 0 6.577-5.242 8.352-3.973 5.32 3.806 8.451-0.434 9.128 1.619 2.033 6.159 7.095 4.539 6.418 6.594-2.033 6.158 3.031 7.779 1.257 9.047-5.32 3.807-2.192 8.047-4.386 8.047-6.578 0z"></path>
</symbol>
<!-- icon-star -->


<!-- icon-product -->
<symbol id="icon-product" viewBox="0 0 25.841 28.649">
  <g id="Group_162" data-name="Group 162" transform="translate(-207.894 -279.049)">
    <path id="Path_103" data-name="Path 103" d="M218.875,307.577c-2.491,0-4.983-.06-7.472.017-2.319.072-3.6-.838-3.415-3.269.4-5.224-1.075-10.6,1.27-15.667-1.93-2.722.015-5.048.749-7.508a2.62,2.62,0,0,1,2.964-2.074c4.876.084,9.756.093,14.631-.027,1.726-.042,2.225.8,2.788,2.2a51.079,51.079,0,0,1,3.344,19.117c.027,4.857-2.523,6.339-7.09,7.118-2.521.431-5.176.077-7.77.077Z" fill="#544e43"/>
    <path id="Path_104" data-name="Path 104" d="M230.144,284.133c3.727,6.617,3.907,13.537,3.6,20.542-.149,3.425-3.083,3.97-5.262,4.146-5.266.425-10.588.164-15.887.179-.891,0-1.877-.184-1.818-1.23.292-5.139-.971-10.357.918-15.429.636-1.708,1.442-2.455,3.35-2.349,3.108.171,6.25-.159,9.344.106,2.669.228,4.058-.712,4.612-3.265A16.14,16.14,0,0,1,230.144,284.133Z" transform="translate(-1.46 -2.71)" fill="#fefefd"/>
    <path id="Path_105" data-name="Path 105" d="M219.892,287.557a14.508,14.508,0,0,1-3.719-.068c-1.262-.346-3.487,1.444-3.707-1.032a4.182,4.182,0,0,1,4.166-4.58c3.634-.019,7.268.044,10.9-.029,1.682-.034,2.455.074,1.744,2.184-.874,2.591-2.006,4.125-5.032,3.571A24.631,24.631,0,0,0,219.892,287.557Z" transform="translate(-2.427 -1.489)" fill="#fcfcfb"/>
    <path id="Path_106" data-name="Path 106" d="M228.71,319.1c-.238,1.22-1.215,2.766-2.32,2.138-2.1-1.194-5.818,2.311-6.521-2.25-.211-1.366,3.213-4.653,4.517-4.554C225.585,314.522,228.716,317.8,228.71,319.1Z" transform="translate(-6.378 -18.859)" fill="#6d604f"/>
    <path id="Path_107" data-name="Path 107" d="M250.852,294.389c.072.278.259.6.2.829-1.47,5.588-.7,11.421-1.513,17.092C249,306.279,248.377,300.25,250.852,294.389Z" transform="translate(-21.937 -8.177)" fill="#98928a"/>
    <path id="Path_108" data-name="Path 108" d="M225.259,307.236c-.061,1.042-.35,1.763-1.244,1.65-.939-.119-1.3-.905-1.321-1.811-.02-.793.285-1.589,1.1-1.571C224.916,305.528,225.22,306.476,225.259,307.236Z" transform="translate(-7.888 -14.101)" fill="#736756"/>
    <path id="Path_109" data-name="Path 109" d="M217.718,310.839a1.763,1.763,0,0,1,1.469,1.693c.125.761-.036,1.545-.954,1.554-.954.009-1.354-.793-1.485-1.636A1.261,1.261,0,0,1,217.718,310.839Z" transform="translate(-4.704 -16.945)" fill="#726450"/>
    <path id="Path_110" data-name="Path 110" d="M237.839,310.774a1.315,1.315,0,0,1,.924,1.71c-.15.9-.647,1.645-1.568,1.562-.792-.072-1.133-.827-.916-1.643A1.944,1.944,0,0,1,237.839,310.774Z" transform="translate(-15.096 -16.91)" fill="#786854"/>
    <path id="Path_111" data-name="Path 111" d="M232.993,307.086c-.188.79-.4,1.666-1.357,1.789-.939.12-1.186-.668-1.186-1.4,0-.94.207-1.961,1.387-1.955C232.625,305.521,232.928,306.3,232.993,307.086Z" transform="translate(-12.023 -14.108)" fill="#746451"/>
    <path id="Path_112" data-name="Path 112" d="M228.743,320.185c-.148,1.337-1.161,1.841-1.746,1.29-1.515-1.428-4.377,2.135-4.827-1.186-.19-1.4,1.842-3.205,3.247-3.172C226.788,317.149,228.126,318.759,228.743,320.185Z" transform="translate(-7.603 -20.291)" fill="#f3b14e"/>
    <path id="Path_113" data-name="Path 113" d="M225.143,321.07c-.764-.285-2.03.564-2.212-1.045-.208-1.842,1.151-1.419,2.14-1.555A2.533,2.533,0,0,1,225.143,321.07Z" transform="translate(-8.004 -21.013)" fill="#f2c685"/>
  </g>
</symbol>
<!-- icon-product -->


<!-- icon-booking-->
<symbol id="icon-booking"  viewBox="0 0 30.269 27.122">

  <g id="Group_157" data-name="Group 157" transform="translate(-94.697 -273.858)">
    <path id="Path_95" data-name="Path 95" d="M99.508,289.7c-2.508,2.145-2.965-.828-4.134-1.755-1.574-1.248-.015-2.012.759-2.709,3.847-3.46,7.785-6.819,11.594-10.32,1.539-1.414,2.68-1.416,4.228.022,3.722,3.455,7.615,6.724,11.367,10.147.668.609,2.41,1.234,1.259,2.41-1.034,1.055-1.312,3.6-3.807,2.628-2.466,1.912-2.241-.845-3.082-1.765-2.112-1.889-4.025-3.975-6.226-5.781-1.388-1.139-2.286-1-3.492.084a55.406,55.406,0,0,0-6.192,6.212c-.836,1.935.449,4.31-1.363,6.3C99.123,293.391,100.441,291.327,99.508,289.7Z" fill="#595248"/>
    <path id="Path_96" data-name="Path 96" d="M121.892,307.14c.084.05.216.083.242.154a7.961,7.961,0,0,0,2.187,2.071c-1.555,2.641-.5,5.48-.557,8.224-.017.839,1.036.671,1.683.748.618.073,1.226.2,1.145.986s-.782.756-1.345.757q-11.438.026-22.875.016c-.659,0-1.485.062-1.541-.915-.047-.829.667-.823,1.231-.894,1.312-.163,1.1-1.173,1.1-2.012-.01-2.445-.067-4.889-.105-7.334,1.468,1.306-.168,3.176.931,4.66.959-2.1-.531-4.505.883-6.46,1.191,1.445.628,3.175.773,4.789s-.321,3.29.418,4.8c1.284.114,1.155-1.755,2.42-1.4.229,3.538,2.591,3.61,5.292,3.388a11.722,11.722,0,0,1,5.311.475c-.51-.229-1.039-.362-.61-1.09,2.213-.729,2.662-2.353,2.651-4.509S120.46,309.143,121.892,307.14Z" transform="translate(-3.546 -19.242)" fill="#544e43" stroke="#544e43" stroke-miterlimit="10" stroke-width="0.25"/>
    <path id="Path_97" data-name="Path 97" d="M113.633,305.2a8.193,8.193,0,0,0-.4,1.659c-.036,1.16-.664,1.478-1.693,1.475-1.166,0-1.483-.656-1.466-1.678.055-3.2.092-6.407.136-9.611,2.449-2.232,4.942-4.418,7.324-6.719.915-.884,1.468-.856,2.368.007,2.39,2.293,4.881,4.481,7.333,6.711.048,2.633-.078,5.284.19,7.894.307,2.985-.876,3.878-3.624,3.209-1.31-1.256-.723-2.894-.887-4.379.035-4.81.035-4.81-4.694-4.78-3.567.022-3.569.022-3.719,3.477a6.436,6.436,0,0,1-.265,2.022A1.509,1.509,0,0,1,113.633,305.2Z" transform="translate(-8.892 -9.142)" fill="#fefefd"/>
    <path id="Path_98" data-name="Path 98" d="M100.194,290.974c-.461-.591-.9-1.113-1.3-1.67-.513-.729.173-1.062.567-1.411,3.891-3.443,7.81-6.854,11.695-10.3a1.272,1.272,0,0,1,2,.008q5.71,5.084,11.49,10.09c.961.835.931,1.532.062,2.44-1.022,1.067-1.526.119-2.134-.421-2.857-2.541-5.785-5.011-8.511-7.685-1.412-1.385-2.286-1.53-3.77-.051-2.7,2.694-5.656,5.14-8.51,7.685C101.361,290.038,100.9,290.391,100.194,290.974Z" transform="translate(-2.323 -1.878)" fill="#f3b14e"/>
    <path id="Path_99" data-name="Path 99" d="M118.456,324.151a1.314,1.314,0,0,1,.116-.529.552.552,0,0,1,.777.1c1.1,3.166,2.869,4.027,6.194,3.167,2.317-.6,1.213-2.857,2.139-4.114a.877.877,0,0,1,.769-.317l.177,4.638c.011.729.88.534,1.5,1.274-3.255,0-6.127-.1-8.987.035-1.933.091-3.2-.1-2.556-2.527A5.326,5.326,0,0,0,118.456,324.151Z" transform="translate(-13.716 -28.096)" fill="#4a4640"/>
    <path id="Path_100" data-name="Path 100" d="M119.312,316.264l-.276-.013-.275.011c-.077-6.53-.077-6.53,5.943-6.538,3.975-.005,3.975-.005,3.936,5.374a3.012,3.012,0,0,1-.518.049c-.094-.1-.189-.2-.285-.292-.535-.885-.173-2.156-1.223-2.815a4.68,4.68,0,0,0-2.284-.276c-3.557-.043-3.557-.039-4.419,3.534A1.743,1.743,0,0,1,119.312,316.264Z" transform="translate(-13.904 -20.736)" fill="#7b6b57"/>
    <path id="Path_101" data-name="Path 101" d="M120.088,317.83c0-5.443,0-5.456,5.613-5.35.924.017,1.949-.308,2.724.535-2.678,1.9-2.678,1.9.1,3.679a1.119,1.119,0,0,0,.371.018c-.288,5.09-.288,5.09-4.946,5.085C120.184,321.8,120.184,321.8,120.088,317.83Z" transform="translate(-14.68 -22.302)" fill="#f1af50"/>
    <path id="Path_102" data-name="Path 102" d="M135.762,317.5c-1.081-.4-2.872.8-3.129-1.478-.294-2.606,1.629-2.008,3.028-2.2A3.585,3.585,0,0,1,135.762,317.5Z" transform="translate(-21.915 -23.102)" fill="#f2c685"/>
  </g>
</symbol>
<!-- icon-booking -->


<!-- icon-walking -->
<symbol id="icon-walking"  viewBox="0 0 27.55 27.922">

   <g id="Group_185" data-name="Group 185" transform="translate(-108.722 -487.694)">
    <path id="Path_159" data-name="Path 159" d="M121.026,516.757c1.588-1.173,3.093-1.731,3.229-3.675.032-.457.389-.584.725-.315.6.483,1.623.49,1.629,1.669.006,1.243.047,2.488-.008,3.728-.05,1.11.282,1.594,1.359,1.524a30.03,30.03,0,0,1,3.99,0c1.586.108,1.847-.841,1.085-1.94-1.521-2.2-.544-4.443-.388-6.665.064-.927.553-1.811.663-2.741.232-1.962.54-3.578,2.949-3.366,1.011.089,1.811-.861,2.028-2.083.2-1.148-.521-1.731-1.245-2.275a11.645,11.645,0,0,1-2.642-2.571,3.381,3.381,0,0,0-4.373-1.068,4.669,4.669,0,0,0-2.507,4.834c.182,1.836-.59,2.23-1.739,2.467a27.715,27.715,0,0,1-3.957.465,3.509,3.509,0,0,0-2.436.777c-.731.716-1.345.362-1.968-.088-.688-.5-.579-1.245-.4-1.973.1-.423.286-.823.372-1.248a1.688,1.688,0,0,0-.722-2.052c-.724-.392-1.29-.046-1.78.508-2.029,2.291-1.391,6.877,1.326,7.993,2.134.877,1.511,2.124.767,3.4a11.027,11.027,0,0,0-1.283,5.862c.01,1.291.368,1.873,1.621,1.763,1.19-.1,2.4.052,3.589-.049.686-.058,1.691.586,1.974-.765C123.155,517.569,122.353,517.1,121.026,516.757Z" transform="translate(-2.05 -4.128)" fill="#575045"/>
    <path id="Path_160" data-name="Path 160" d="M134.437,505.1c1.512,0,2.7.055,3.873-.02a1.736,1.736,0,0,0,1.707-1.269c.283-.964-.471-1.277-.978-1.675a11.144,11.144,0,0,1-2.637-2.574,2.563,2.563,0,0,0-3.613-.742,4.449,4.449,0,0,0-1.859,3.89,1.2,1.2,0,0,0,.839,1.122c.591.211,1.014-.1,1.414-.536a4.594,4.594,0,0,0,.767-2.808c.991,1.622.456,3.955-1.026,4.048-1.988.126-3.464,1.858-5.386,1.7-4.081-.33-6.606,1.09-6.8,6.112-.059,1.571-1.508,2.856-1.58,4.649-.11,2.756-.171,2.753,2.461,2.508.16-.427-.082-.667-.335-.919-1.24-1.238-1.179-2.6.335-3.377a9.086,9.086,0,0,0,4.011-3.1.9.9,0,0,1,.468-.378c.735-.2,3.921,2.46,3.953,3.312.032.876,0,1.754.009,2.631.013,2.021.015,2.021,2.283,1.785-1.594-1.633-.748-2.768.328-4.167,1.762-2.289,2.285-5.208,2.83-8.091C135.7,506.173,134.935,505.918,134.437,505.1Z" transform="translate(-4.68 -4.994)" fill="#fefefe"/>
    <path id="Path_161" data-name="Path 161" d="M116.872,507.985c.093-.358.334-1.109.466-1.882a1.272,1.272,0,0,0-.238-.968c-.264-.245-.606,0-.858.27-1.7,1.8-1.006,5.644,1.2,6.645.472.214,1,.617,1.351-.152.31-.678-.018-1.054-.6-1.317C117.337,510.189,116.807,509.508,116.872,507.985Z" transform="translate(-2.824 -8.214)" fill="#f4f3f1"/>
    <path id="Path_162" data-name="Path 162" d="M128.024,527.427a11.368,11.368,0,0,1-3.143,2.231c-.793.265-1.925.952-1.519,1.553.583.862.89,2.27,2.139,2.477a5.64,5.64,0,0,0,1.232-.08c-.252-1.046-1.716-.8-1.575-2.039.133-1.168,1.125-1.3,1.8-1.816A2.565,2.565,0,0,0,128.024,527.427Z" transform="translate(-6.691 -19.06)" fill="#f2f1ee"/>
    <path id="Path_163" data-name="Path 163" d="M147.686,535.283a4.117,4.117,0,0,1-1.19-4.092c-.309,1.109-2.151,1.109-1.333,2.889C145.738,535.333,146.3,535.909,147.686,535.283Z" transform="translate(-17.191 -20.883)" fill="#f5f4f1"/>
    <path id="Path_164" data-name="Path 164" d="M109.462,488.159a.666.666,0,0,1,.574-.037,1.634,1.634,0,0,1,.5.321c1.228,1.057,2.033,2.554,3.324,3.533a10.51,10.51,0,0,0,2.567,1.3,7.492,7.492,0,0,1,2.541,1.314c.778.741,1.426,1.585,2.145,2.381a19.518,19.518,0,0,0,2.01,1.924,5.707,5.707,0,0,0,2.387,1.469.448.448,0,0,0,.234-.013.371.371,0,0,0,.206-.331,1.1,1.1,0,0,0-.081-.4,2.985,2.985,0,0,1,.043,1.265.642.642,0,0,1-.165.37.6.6,0,0,1-.7-.037,3.967,3.967,0,0,1-.847-.843c-.765-.893-1.691-1.625-2.526-2.449-.6-.6-1.113-1.273-1.663-1.916a7.738,7.738,0,0,0-.948-.984,14.229,14.229,0,0,0-3.34-1.614,9.624,9.624,0,0,1-1.772-.991A7.49,7.49,0,0,1,112.552,491a11.009,11.009,0,0,0-2.983-2.78Z" fill="#f3b14e" stroke="#f3b14e" stroke-miterlimit="10" stroke-width="0.75"/>
    <g id="Group_108" data-name="Group 108" transform="translate(125.195 499.048)">
      <path id="Path_165" data-name="Path 165" d="M140.053,509.813a1.166,1.166,0,0,1,.16-.459,1.5,1.5,0,0,0,1.123.656,1.465,1.465,0,0,0,.658.333,1.508,1.508,0,0,0,.73.235l.022.006.006,0a19.3,19.3,0,0,1,1.034.213c.045,0,.088-.005.131-.008a1.61,1.61,0,0,0,.663.137,1.568,1.568,0,0,0,.829-.223,1.626,1.626,0,0,0,.55-.117.463.463,0,0,1,.018.047.985.985,0,0,1-.006.424c-.232,1.117-.27,1.2-1.15,1.387a4.124,4.124,0,0,1-.506.045c-.118.021-.226.021-.268-.138.315-.482.831-.209,1.208-.405-.121.018-.268.069-.368-.093.011-.311.237-.258.41-.293s-.012-.1.007-.141c-.026-.183-.135-.075-.212-.07a7.159,7.159,0,0,1-4.5-1.13c-.057-.006-.086-.182-.169-.037.027.279.363.34.375.635a.164.164,0,0,1-.1.1c-.022.031-.11-.034-.075.039s-.015-.023.044.029c.18.158.443.238.444.566-.138.114-.257.052-.373-.046C139.887,510.911,139.9,510.851,140.053,509.813Z" transform="translate(-139.973 -509.354)" fill="#585248"/>
      <path id="Path_166" data-name="Path 166" d="M145.03,513.795l-.228-.187c.143-.1-.35-.034-.042-.183a.484.484,0,0,0,.258-.563c-.039-.254-.237-.207-.4-.236a12.477,12.477,0,0,1-2-.479c-.191-.065-.408-.223-.547.071a.47.47,0,0,0,.24.7c-.2-.045-.311-.288-.5-.129-.116.1-.242.035-.365.025a2.6,2.6,0,0,0,.8.438,1.064,1.064,0,0,1,.643.625c.126.381.487.525.73.285A1.761,1.761,0,0,1,145.03,513.795Z" transform="translate(-140.688 -510.658)" fill="#645b4f"/>
      <path id="Path_167" data-name="Path 167" d="M149.968,512.276a1.268,1.268,0,0,0,.612-.249" transform="translate(-144.814 -510.649)" fill="#fcfbfa"/>
      <path id="Path_168" data-name="Path 168" d="M141.271,512.039c.328.062.549.5,1.067.333-.276-.146-.453-.235-.627-.334-.207-.118-.15-.312-.1-.49.07-.239.228-.164.37-.1a6.132,6.132,0,0,0,2.1.512c.151.012.332-.029.322.223-.007.211-.042.428-.306.431-.183,0-.367,0-.623,0,.237.393.569.1.788.243a3.329,3.329,0,0,0,1.429-.429l-.645-.034-.06-.039c-.056-.429.318-.164.43-.321l.06-.053c.07-.158.3-.061.345-.283a7.419,7.419,0,0,1-5.239-1.2c-.051.393.283.488.454.711.059.077.167.176.027.275-.021.015-.1-.045-.154-.043l-.578-.294A3.488,3.488,0,0,0,141.271,512.039Z" transform="translate(-140.145 -509.91)" fill="#ebaf4f"/>
      <path id="Path_169" data-name="Path 169" d="M141.046,511.446c.091.128.211.288.341.122a.311.311,0,0,0-.071-.469c-.228-.159-.5-.271-.6-.6-.1.033-.073.141-.1.215.021.343.47.327.476.683A.384.384,0,0,0,141.046,511.446Z" transform="translate(-140.284 -509.91)" fill="#5f5548"/>
      <path id="Path_170" data-name="Path 170" d="M149.243,513.79c.2-.241.55-.023.75-.319l-.321-.093.008,0a4.536,4.536,0,0,1-.556.093.167.167,0,0,0-.11.24.149.149,0,0,0,.236.075Z" transform="translate(-144.344 -511.302)" fill="#bebbb3"/>
      <path id="Path_171" data-name="Path 171" d="M141.077,511.6c.2.047.273-.018.1-.19s-.385-.331-.579-.494C140.493,511.372,140.971,511.331,141.077,511.6Z" transform="translate(-140.269 -510.112)" fill="#c4beb9"/>
      <path id="Path_172" data-name="Path 172" d="M144.687,514.967a.492.492,0,0,0,.487-.417.4.4,0,0,0-.3-.51.434.434,0,0,0-.522.354A.489.489,0,0,0,144.687,514.967Z" transform="translate(-142.088 -511.619)" fill="#f0eeec"/>
      <path id="Path_173" data-name="Path 173" d="M144.269,513.269a.541.541,0,0,1,.608.208.6.6,0,0,0,.947.029l-2.176-.666C143.729,513.307,144.056,513.141,144.269,513.269Z" transform="translate(-141.753 -511.042)" fill="#e3e1df"/>
      <path id="Path_174" data-name="Path 174" d="M144.016,513.144c-.14-.259-.481-.1-.619-.358-.084-.048-.18-.1-.249,0a.133.133,0,0,0,.074.194C143.478,513.085,143.713,513.318,144.016,513.144Z" transform="translate(-141.501 -510.988)" fill="#ecede9"/>
      <path id="Path_175" data-name="Path 175" d="M149.181,513.746c-.111-.076-.259-.153-.019-.257.146-.063.332.017.449-.151a.934.934,0,0,0-.6.035.252.252,0,0,0-.136.348C148.944,513.9,149.07,513.871,149.181,513.746Z" transform="translate(-144.275 -511.265)" fill="#585248"/>
    </g>
  </g>
</symbol>
 <!-- icon-walking -->


<!-- icon-donate -->
<symbol id="icon-donate" viewBox="0 0 37.063 27.338">

 <g id="Group_167" data-name="Group 167" transform="translate(-74.751 -391.512)">
    <path id="Path_114" data-name="Path 114" d="M109.062,419.934c-3.028.64-5.583,1.352-8.186,1.681-2.621.332-5.341.752-8.338-.874,2.842-1.222,5.75.956,8.11-1.645-4.14.439-6.932-2.623-10.553-3.464-3.413-.792-6.553.441-9.546,1.748-.7-1.155.045-1.4.565-1.642,4.224-1.981,8.491-2.4,12.733-.1,1.868,1.014,3.713,1.971,5.922,1.9.4-.012,1.047.07,1.179.32,1.7,3.216,4.076,1.454,6.291.925,1.108-.264,2.148-.18,2.717.963a1.91,1.91,0,0,1-.835,2.711c-5.77,3.233-11.7,6.251-18.515,3.678-5.146-1.945-10.192-3.161-15.856-.7C76,423.479,76,423.457,77.31,423.148a16.463,16.463,0,0,1,11.118.874c7.291,3.473,13.7,1.023,19.957-2.734C108.591,421.165,108.646,420.789,109.062,419.934Z" transform="translate(0 -8.26)" fill="#585145"/>
    <path id="Path_115" data-name="Path 115" d="M122.82,406.655c.093,2.727-2.069,4.414-4.431,3.5a3.931,3.931,0,0,0-3.5.013c-1.7.82-3.1.035-4.018-1.43a3.035,3.035,0,0,1,.543-4.014,13.425,13.425,0,0,1,1.433-1.225c1.348-1.03,2.127-3.444,4.214-2.7,2.381.844,3.853,3.1,5.534,4.94C122.84,406,122.794,406.529,122.82,406.655Z" transform="translate(-13.029 -3.347)" fill="#5c544a"/>
    <path id="Path_116" data-name="Path 116" d="M123.15,396.442a1.783,1.783,0,0,1-1.856-1.89c-.1-1.327.28-2.673,1.729-2.991,1.35-.3,1.818.83,1.877,1.96A2.721,2.721,0,0,1,123.15,396.442Z" transform="translate(-17.031 0)" fill="#665e52"/>
    <path id="Path_117" data-name="Path 117" d="M110.941,399.515c0,1.125-.167,2.161-1.4,2.157-1.584-.005-2.034-1.286-2.219-2.574-.146-1.023.211-2.07,1.381-2.045C110.2,397.086,110.723,398.3,110.941,399.515Z" transform="translate(-11.91 -2.028)" fill="#625a51"/>
    <path id="Path_118" data-name="Path 118" d="M117.164,394.063c-.029,1.139-.194,2.309-1.538,2.32-1.407.011-1.865-1.161-1.934-2.377-.067-1.189.1-2.535,1.649-2.431C116.653,391.664,117.1,392.863,117.164,394.063Z" transform="translate(-14.249 -0.021)" fill="#63594a"/>
    <path id="Path_119" data-name="Path 119" d="M131.171,398.961c-.21,1.418-.641,2.667-2.194,2.72-1.292.044-1.4-1.088-1.324-2.049.1-1.21.544-2.35,1.956-2.465C130.859,397.065,131.129,398.012,131.171,398.961Z" transform="translate(-19.357 -2.067)" fill="#5c5549"/>
    <path id="Path_120" data-name="Path 120" d="M112.828,407.5c.791-1.856,2.6-3.238,4.289-4.448,1.231-.884,1.934,1.1,2.852,1.823a17,17,0,0,1,2.043,1.937,1.591,1.591,0,0,1,.081,2.036c-.477.761-1.241,1.4-2.083.919a5.029,5.029,0,0,0-5-.011C113.876,410.263,112.883,409.249,112.828,407.5Z" transform="translate(-13.938 -4.144)" fill="#f2af4e"/>
    <path id="Path_121" data-name="Path 121" d="M123.361,408.174c-1.015-.379-2.7.749-2.939-1.388-.276-2.448,1.53-1.886,2.844-2.067A3.366,3.366,0,0,1,123.361,408.174Z" transform="translate(-16.707 -4.835)" fill="#f2c685"/>
  </g>
</symbol>
<!-- icon-donate -->


<!-- icon-column -->
<symbol id="icon-column" viewBox="0 0 31.919 29.067">

 <g id="Group_177" data-name="Group 177" transform="translate(-259.552 -392.109)">
    <g id="Group_101" data-name="Group 101" transform="translate(268.312 392.585)">
      <path id="Path_128" data-name="Path 128" d="M275.715,405.773c0-2.971-.039-5.944.015-8.914.048-2.644,1.165-3.8,3.788-3.832q6.346-.086,12.694,0c2.6.034,3.77,1.2,3.793,3.838.051,6.032.02,12.065.014,18.1,0,2.435-1.32,3.691-3.671,3.723-4.32.06-8.642.03-12.963-.022-2.568-.03-3.7-1.47-3.679-3.979C275.734,411.716,275.712,408.745,275.715,405.773Z" transform="translate(-275.702 -392.986)" fill="#5b5347"/>
      <path id="Path_129" data-name="Path 129" d="M277.838,406.576c0-2.879.029-5.759-.009-8.638-.026-1.911.856-2.834,2.759-2.83q6.208.011,12.416,0c1.856-.005,2.863.8,2.86,2.746q-.02,8.908.009,17.817c.009,1.913-.885,2.825-2.778,2.821-4.139-.009-8.278-.028-12.416,0-2.06.011-2.906-.97-2.859-3C277.888,412.517,277.837,409.546,277.838,406.576Z" transform="translate(-276.67 -393.956)" fill="#fefdfd"/>
    </g>
    <path id="Path_130" data-name="Path 130" d="M288.171,398.516q3.249,0,6.5,0c.549,0,.861.115.943.336.091.244-.214.453-.718.489-.142.01-.288.007-.432.007H281.9c-.1,0-.193,0-.289,0-.555-.014-.881-.174-.885-.421s.439-.416.9-.414c1.892.009,3.786,0,5.679,0Z" transform="translate(-9.688 -2.93)" fill="#f3b14e"/>
    <path id="Path_131" data-name="Path 131" d="M289.368,411.05h5.261c.445,0,.7.04.763.118s-.174.159-.581.171c-.115,0-.234,0-.35,0h-10.4c-.449,0-.713-.061-.716-.148s.355-.145.729-.145q2.3,0,4.6,0Z" transform="translate(-10.885 -8.667)" fill="#f3b14e"/>
    <path id="Path_132" data-name="Path 132" d="M289.368,412.025h5.261c.445,0,.7.04.763.118s-.174.158-.581.171c-.115,0-.234,0-.35,0h-10.4c-.449,0-.713-.061-.716-.148s.355-.146.729-.145q2.3,0,4.6,0Z" transform="translate(-10.885 -9.113)" fill="#f3b14e"/>
    <path id="Path_133" data-name="Path 133" d="M289.368,413h5.261c.445,0,.7.041.763.118s-.174.159-.581.171c-.115,0-.234,0-.35,0h-10.4c-.449,0-.713-.061-.716-.147s.355-.146.729-.145c1.532,0,3.065,0,4.6,0Z" transform="translate(-10.885 -9.559)" fill="#f3b14e"/>
    <path id="Path_134" data-name="Path 134" d="M289.368,413.975h5.261c.445,0,.7.04.763.118s-.174.159-.581.171c-.115,0-.234,0-.35,0h-10.4c-.449,0-.713-.061-.716-.148s.355-.145.729-.145q2.3,0,4.6,0Z" transform="translate(-10.885 -10.005)" fill="#f3b14e"/>
    <path id="Path_135" data-name="Path 135" d="M288.171,401.169c2.166,0,4.331,0,6.5,0,.549,0,.861.63.943,1.839.091,1.332-.214,2.481-.718,2.672a1.181,1.181,0,0,1-.432.036H281.9a2.138,2.138,0,0,1-.289-.005c-.555-.075-.881-.949-.885-2.3s.439-2.275.9-2.263c1.892.051,3.786.02,5.679.02Z" transform="translate(-9.688 -4.136)" fill="#f3b14e"/>
    <path id="Path_136" data-name="Path 136" d="M288.171,418.908q3.249,0,6.5,0c.549,0,.861.115.943.336.091.243-.214.453-.718.489-.142.01-.288.006-.432.006H281.9c-.1,0-.193,0-.289,0-.555-.014-.881-.174-.885-.421s.439-.416.9-.414c1.892.009,3.786,0,5.679,0Z" transform="translate(-9.688 -12.261)" fill="#f3b14e"/>
    <path id="Path_137" data-name="Path 137" d="M289.368,431.442h5.261c.445,0,.7.04.763.118s-.174.158-.581.171c-.115,0-.234,0-.35,0h-10.4c-.449,0-.713-.061-.716-.148s.355-.146.729-.145q2.3,0,4.6,0Z" transform="translate(-10.885 -17.998)" fill="#f3b14e"/>
    <path id="Path_138" data-name="Path 138" d="M289.368,432.417h5.261c.445,0,.7.04.763.118s-.174.158-.581.171c-.115,0-.234,0-.35,0h-10.4c-.449,0-.713-.061-.716-.148s.355-.146.729-.145c1.532,0,3.065,0,4.6,0Z" transform="translate(-10.885 -18.444)" fill="#f3b14e"/>
    <path id="Path_139" data-name="Path 139" d="M289.368,433.392h5.261c.445,0,.7.041.763.118s-.174.159-.581.171c-.115,0-.234,0-.35,0h-10.4c-.449,0-.713-.061-.716-.148s.355-.145.729-.145q2.3,0,4.6,0Z" transform="translate(-10.885 -18.889)" fill="#f3b14e"/>
    <path id="Path_140" data-name="Path 140" d="M289.368,434.367h5.261c.445,0,.7.04.763.118s-.174.159-.581.171c-.115,0-.234,0-.35,0h-10.4c-.449,0-.713-.061-.716-.148s.355-.145.729-.145q2.3,0,4.6,0Z" transform="translate(-10.885 -19.336)" fill="#f3b14e"/>
    <path id="Path_141" data-name="Path 141" d="M288.171,421.561c2.166,0,4.331,0,6.5,0,.549,0,.861.63.943,1.839.091,1.332-.214,2.48-.718,2.672a1.168,1.168,0,0,1-.432.036q-6.281,0-12.562,0a2.138,2.138,0,0,1-.289-.005c-.555-.075-.881-.949-.885-2.3s.439-2.275.9-2.263c1.892.051,3.786.02,5.679.02Z" transform="translate(-9.688 -13.467)" fill="#f3b14e"/>
    <g id="Group_102" data-name="Group 102" transform="translate(259.552 392.109)">
      <path id="Path_142" data-name="Path 142" d="M262.848,409.953c-.987-2.8-2.016-5.592-2.954-8.411-.835-2.509-.165-3.967,2.3-4.874q5.956-2.194,11.97-4.226c2.462-.833,3.955-.122,4.855,2.356,2.057,5.671,4.036,11.371,6.038,17.062.809,2.3-.016,3.919-2.221,4.733-4.053,1.495-8.139,2.906-12.231,4.3-2.432.826-3.981-.153-4.794-2.527C264.845,415.55,263.835,412.756,262.848,409.953Z" transform="translate(-259.552 -392.109)" fill="#5b5347"/>
      <path id="Path_143" data-name="Path 143" d="M264.868,410.4c-.958-2.716-1.89-5.441-2.885-8.143-.661-1.793-.136-2.957,1.659-3.587q5.857-2.057,11.708-4.136c1.748-.623,2.967-.2,3.61,1.637q2.948,8.406,5.94,16.8c.645,1.8.106,2.959-1.68,3.585-3.905,1.37-7.815,2.73-11.709,4.13-1.938.7-3.063.053-3.7-1.878C266.893,415.98,265.857,413.2,264.868,410.4Z" transform="translate(-260.539 -393.094)" fill="#fefdfd"/>
    </g>
    <path id="Path_144" data-name="Path 144" d="M271.461,399.82q3.063-1.081,6.127-2.162c.518-.183.849-.178,1,0,.166.2-.051.5-.515.7-.131.056-.27.1-.406.15l-11.845,4.183c-.091.032-.181.066-.273.1-.528.171-.888.13-.974-.1s.275-.538.711-.689c1.788-.622,3.571-1.257,5.356-1.888Z" transform="translate(-2.293 -2.477)" fill="#f3b14e"/>
    <path id="Path_145" data-name="Path 145" d="M276.7,411.96l4.96-1.751c.42-.148.67-.194.759-.143s-.11.207-.491.355c-.107.042-.219.08-.329.119l-9.59,3.386-.221.078c-.425.145-.693.18-.724.1s.286-.256.639-.379q2.169-.761,4.336-1.53Z" transform="translate(-5.265 -8.208)" fill="#f3b14e"/>
    <path id="Path_146" data-name="Path 146" d="M277.021,412.88l4.96-1.751c.419-.148.67-.194.759-.143s-.111.208-.491.355c-.107.041-.219.08-.329.118l-9.59,3.386-.221.078c-.426.145-.693.18-.725.1s.286-.255.639-.379q2.17-.761,4.336-1.53Z" transform="translate(-5.413 -8.628)" fill="#f3b14e"/>
    <path id="Path_147" data-name="Path 147" d="M277.345,413.8l4.96-1.751c.42-.148.67-.194.759-.143s-.11.208-.491.355c-.107.041-.219.08-.329.119l-9.59,3.386-.221.078c-.425.145-.693.18-.724.1s.286-.255.639-.379q2.169-.761,4.336-1.53Z" transform="translate(-5.562 -9.049)" fill="#f3b14e"/>
    <path id="Path_148" data-name="Path 148" d="M277.67,414.718l4.96-1.751c.419-.148.67-.194.759-.143s-.111.207-.491.355c-.107.041-.219.08-.329.119l-9.59,3.386-.221.078c-.425.145-.693.181-.725.1s.287-.256.639-.38q2.169-.761,4.336-1.53Z" transform="translate(-5.71 -9.47)" fill="#f3b14e"/>
    <path id="Path_149" data-name="Path 149" d="M272.627,402.42c2.042-.72,4.083-1.446,6.128-2.159.519-.181,1.021.307,1.5,1.421.529,1.226.624,2.41.213,2.759a1.178,1.178,0,0,1-.4.178q-5.922,2.094-11.845,4.183a2.186,2.186,0,0,1-.274.091c-.549.114-1.147-.6-1.6-1.878s-.344-2.292.1-2.434c1.8-.582,3.577-1.242,5.362-1.872Z" transform="translate(-2.978 -3.713)" fill="#f3b14e"/>
    <path id="Path_150" data-name="Path 150" d="M278.25,419.049q3.063-1.081,6.127-2.163c.518-.182.849-.178,1,0,.167.2-.051.5-.515.7-.131.056-.27.1-.406.15l-11.845,4.183c-.091.032-.181.065-.272.095-.528.172-.889.13-.975-.1s.276-.538.711-.69c1.788-.621,3.571-1.257,5.356-1.887Z" transform="translate(-5.4 -11.276)" fill="#f3b14e"/>
    <path id="Path_151" data-name="Path 151" d="M283.485,431.189l4.96-1.751c.42-.148.67-.194.759-.143s-.11.207-.491.355c-.107.041-.219.08-.329.119l-9.59,3.386-.22.078c-.426.145-.693.181-.725.1s.286-.256.639-.38q2.169-.761,4.336-1.53Z" transform="translate(-8.371 -17.007)" fill="#f3b14e"/>
    <path id="Path_152" data-name="Path 152" d="M283.81,432.108l4.96-1.751c.419-.148.67-.194.759-.143s-.111.207-.491.355c-.107.042-.219.08-.329.119l-9.59,3.386-.221.077c-.425.145-.693.181-.725.1s.287-.256.64-.379q2.169-.761,4.336-1.53Z" transform="translate(-8.52 -17.427)" fill="#f3b14e"/>
    <path id="Path_153" data-name="Path 153" d="M284.134,433.027l4.96-1.751c.42-.148.67-.194.759-.143s-.11.207-.491.355c-.107.042-.22.08-.33.119l-9.59,3.386-.22.078c-.426.145-.693.18-.725.1s.286-.256.639-.379q2.169-.761,4.336-1.53Z" transform="translate(-8.668 -17.848)" fill="#f3b14e"/>
    <path id="Path_154" data-name="Path 154" d="M284.459,433.946l4.96-1.751c.42-.148.67-.194.759-.143s-.111.207-.491.355c-.107.042-.219.08-.329.119l-9.59,3.386-.221.078c-.425.145-.693.18-.724.1s.286-.255.639-.379q2.169-.761,4.336-1.53Z" transform="translate(-8.817 -18.268)" fill="#f3b14e"/>
    <path id="Path_155" data-name="Path 155" d="M279.416,421.649c2.043-.72,4.083-1.446,6.128-2.159.519-.181,1.021.307,1.5,1.42.529,1.226.624,2.41.213,2.759a1.169,1.169,0,0,1-.4.177q-5.922,2.093-11.845,4.183a2.1,2.1,0,0,1-.274.091c-.548.114-1.147-.6-1.6-1.878s-.344-2.291.1-2.433c1.8-.583,3.577-1.242,5.362-1.872Z" transform="translate(-6.085 -12.512)" fill="#f3b14e"/>
    <path id="Path_156" data-name="Path 156" d="M306.943,414.856a3.916,3.916,0,1,1,3.924-3.916A3.93,3.93,0,0,1,306.943,414.856Zm.776-5.552a1.179,1.179,0,0,0-.207-.7.651.651,0,0,0-1.1-.033.988.988,0,0,0-.147.262,1.385,1.385,0,0,0-.069.663c.084.73.162,1.46.242,2.191.012.108.015.217.034.323a.459.459,0,0,0,.693.391.348.348,0,0,0,.25-.324c.053-.539.118-1.077.177-1.615Q307.656,409.881,307.719,409.3Zm-.821,4.278a.622.622,0,0,0,.447-.123.335.335,0,0,0,.044-.488.65.65,0,0,0-.879,0,.274.274,0,0,0-.017.411A.477.477,0,0,0,306.9,413.582Z" transform="translate(-19.896 -6.825)" fill="#fefefe" stroke="#685744" stroke-miterlimit="10" stroke-width="1"/>
  </g>
</symbol>
<!-- icon-column -->


<!-- icon-about -->
<symbol id="icon-about" viewBox="0 0 33.189 22.129">

 <g id="Group_172" data-name="Group 172" transform="translate(-171.997 -402.103)">
    <circle id="Ellipse_18" data-name="Ellipse 18" cx="3.54" cy="3.54" r="3.54" transform="translate(185.054 403.473)" fill="#f2af4e"/>
    <path id="Path_122" data-name="Path 122" d="M201.526,419.449a34.51,34.51,0,0,0-.99-5.525c-.373-1.1-1.482-1.959-2.325-2.868a1,1,0,0,0-.92-.036,5,5,0,0,1-5.081,0,1.41,1.41,0,0,0-1.216.107,6.889,6.889,0,0,0-3.041,5.976c0,1.9.037,3.809-.033,5.71-.015.4-.43.777-.661,1.165-.205-.373-.579-.742-.587-1.119-.052-2.22-.048-4.442-.005-6.662a7.778,7.778,0,0,1,3.235-6.044,1.183,1.183,0,0,0,.5-1.49,4.7,4.7,0,0,1,3.853-6.358c3.107-.595,5.99,2.951,4.948,6.175a1.6,1.6,0,0,0,.577,2.071,7.564,7.564,0,0,1,2.868,6.1c.019,2.062.04,4.126-.027,6.187-.013.388-.436.762-.669,1.143-.234-.387-.636-.758-.67-1.162-.094-1.1-.032-2.219-.032-3.329Zm-10.069-12.427a3.315,3.315,0,0,0,6.63.091,3.316,3.316,0,1,0-6.63-.091Z" transform="translate(-6.18)" fill="#544e43" stroke="#544e43" stroke-miterlimit="10" stroke-width="0.25"/>
    <path id="Path_123" data-name="Path 123" d="M222.117,419.027a29.739,29.739,0,0,1-.033,3c-.036.328-.44.616-.676.922-.229-.3-.642-.589-.656-.9-.069-1.5-.039-3.015-.03-4.523a4.9,4.9,0,0,0-1.546-3.6,1.33,1.33,0,0,0-1.759-.357,3.57,3.57,0,0,1-4.58-1.5,3.7,3.7,0,0,1,1.239-4.986,3.743,3.743,0,0,1,4.885.959,3.337,3.337,0,0,1,.549,3.149,1.248,1.248,0,0,0,.487,1.587A7.01,7.01,0,0,1,222.117,419.027Zm-3.8-8.8a2.394,2.394,0,0,0-2.257-2.3,2.562,2.562,0,0,0-2.4,2.318,2.678,2.678,0,0,0,2.308,2.329A2.491,2.491,0,0,0,218.313,410.23Z" transform="translate(-17.111 -1.842)" fill="#544e43" stroke="#544e43" stroke-miterlimit="10" stroke-width="0.25"/>
    <path id="Path_124" data-name="Path 124" d="M172.141,419.315c-.089-2.067-.116-4.12,1.381-5.812a1.843,1.843,0,0,1,.317-.348,2.145,2.145,0,0,0,.954-2.551,3.456,3.456,0,0,1,3.217-4.01,3.747,3.747,0,0,1,4.081,3.425,3.945,3.945,0,0,1-3.489,3.93,3.367,3.367,0,0,1-1.7-.394,1.362,1.362,0,0,0-1.868.372,4.62,4.62,0,0,0-1.5,3.36c.011,1.544.041,3.09-.037,4.631-.018.358-.44.7-.675,1.043-.226-.344-.607-.671-.648-1.035A23.512,23.512,0,0,1,172.141,419.315Zm6.234-11.385a2.427,2.427,0,0,0-2.314,2.255,2.514,2.514,0,0,0,2.308,2.39,2.556,2.556,0,0,0,2.335-2.4A2.493,2.493,0,0,0,178.374,407.93Z" transform="translate(0 -1.844)" fill="#544e43" stroke="#544e43" stroke-miterlimit="10" stroke-width="0.25"/>
    <circle id="Ellipse_19" data-name="Ellipse 19" cx="2.24" cy="2.24" r="2.24" transform="translate(176.142 406.139)" fill="#f2af4e"/>
    <circle id="Ellipse_20" data-name="Ellipse 20" cx="2.24" cy="2.24" r="2.24" transform="translate(196.635 406.139)" fill="#f2af4e"/>
    <path id="Path_125" data-name="Path 125" d="M184.4,412.156c-.92-.344-2.444.679-2.664-1.258-.251-2.218,1.387-1.709,2.578-1.873A3.051,3.051,0,0,1,184.4,412.156Z" transform="translate(-4.085 -2.885)" fill="#f2c685"/>
    <path id="Path_126" data-name="Path 126" d="M219.922,412.156c-.92-.344-2.445.679-2.664-1.258-.251-2.218,1.386-1.709,2.578-1.873A3.052,3.052,0,0,1,219.922,412.156Z" transform="translate(-19.197 -2.885)" fill="#f2c685"/>
    <path id="Path_127" data-name="Path 127" d="M203.275,408.228c-.92-.344-2.445.679-2.664-1.258-.251-2.219,1.387-1.709,2.578-1.873A3.052,3.052,0,0,1,203.275,408.228Z" transform="translate(-12.115 -1.215)" fill="#f2c685"/>
  </g>
</symbol>
<!-- icon-column -->











<!--icon-user 電腦用 -->
<symbol id="icon-user2" viewBox="0 0 20 20">
<path d="M5 5c0-2.761 2.239-5 5-5s5 2.239 5 5v0 2c0 2.761-2.239 5-5 5s-5-2.239-5-5v0-2zM0 16.68c2.86-1.685 6.301-2.68 9.974-2.68 0.009 0 0.018 0 0.027 0h-0.001c3.64 0 7.060 0.97 10 2.68v3.32h-20v-3.32z"></path>
</symbol>
<!--icon-user-->


<!--icon-cart2 電腦用-->
<symbol id="icon-cart2" viewBox="0 0 32 32">
<path d="M12 29c0 1.657-1.343 3-3 3s-3-1.343-3-3c0-1.657 1.343-3 3-3s3 1.343 3 3z"></path>
<path d="M32 29c0 1.657-1.343 3-3 3s-3-1.343-3-3c0-1.657 1.343-3 3-3s3 1.343 3 3z"></path>
<path d="M32 16v-12h-24c0-1.105-0.895-2-2-2h-6v2h4l1.502 12.877c-0.915 0.733-1.502 1.859-1.502 3.123 0 2.209 1.791 4 4 4h24v-2h-24c-1.105 0-2-0.895-2-2 0-0.007 0-0.014 0-0.020l26-3.98z"></path>
</symbol>
<!--icon-cart-->


<!--icon-search 手機用-->
<symbol id="icon-search" viewBox="0 0 32 32">
<path d="M31.008 27.231l-7.58-6.447c-0.784-0.705-1.622-1.029-2.299-0.998 1.789-2.096 2.87-4.815 2.87-7.787 0-6.627-5.373-12-12-12s-12 5.373-12 12 5.373 12 12 12c2.972 0 5.691-1.081 7.787-2.87-0.031 0.677 0.293 1.515 0.998 2.299l6.447 7.58c1.104 1.226 2.907 1.33 4.007 0.23s0.997-2.903-0.23-4.007zM12 20c-4.418 0-8-3.582-8-8s3.582-8 8-8 8 3.582 8 8-3.582 8-8 8z"></path>
</symbol>
<!--icon-search-->

<!--icon-search 電腦用-->
<symbol id="icon-search2" viewBox="0 0 32 32">
<path d="M31.008 27.231l-7.58-6.447c-0.784-0.705-1.622-1.029-2.299-0.998 1.789-2.096 2.87-4.815 2.87-7.787 0-6.627-5.373-12-12-12s-12 5.373-12 12 5.373 12 12 12c2.972 0 5.691-1.081 7.787-2.87-0.031 0.677 0.293 1.515 0.998 2.299l6.447 7.58c1.104 1.226 2.907 1.33 4.007 0.23s0.997-2.903-0.23-4.007zM12 20c-4.418 0-8-3.582-8-8s3.582-8 8-8 8 3.582 8 8-3.582 8-8 8z"></path>
</symbol>
<!--icon-search-->




<symbol id="icon-bubble" viewBox="0 0 32 32">
<path d="M16 2c8.837 0 16 5.82 16 13s-7.163 13-16 13c-0.849 0-1.682-0.054-2.495-0.158-3.437 3.437-7.539 4.053-11.505 4.144v-0.841c2.142-1.049 4-2.961 4-5.145 0-0.305-0.024-0.604-0.068-0.897-3.619-2.383-5.932-6.024-5.932-10.103 0-7.18 7.163-13 16-13z"></path>
</symbol>

<symbol id="icon-keyboard_arrow_down" viewBox="0 0 24 24">
<path d="M7.406 8.578l4.594 4.594 4.594-4.594 1.406 1.406-6 6-6-6z"></path>
</symbol>







<symbol id="icon-QA" viewBox="0 0 25.519 27.053">
<g id="Group_182" data-name="Group 182" transform="translate(-5413.875 802.125)">
    <g id="Group_106" data-name="Group 106" transform="translate(5414 -802)">
      <g id="Group_104" data-name="Group 104" transform="translate(9.221 9.591)">
        <path id="Path_157" data-name="Path 157" d="M382.836,424c0,.1-.1.146-.293.146q-.23,0-.674-.037c-.295-.025-.52-.036-.672-.036s-.385.011-.693.036-.538.037-.691.037q-.343,0-.869-1.84t-1.074-1.864q-.451-.024-2.343-.024h-1.919q-2,0-2.283.024-.438.037-.929,1.871t-.759,1.833h-2.732c-.162,0-.244-.057-.244-.17a2.046,2.046,0,0,1,.171-.546l2.974-8.134q.376-.983,2.283-5.67.34-.776.923-2.343c.1-.308.2-.462.315-.462a5.449,5.449,0,0,1,.68.061,5.584,5.584,0,0,0,.68.06,4.9,4.9,0,0,0,.662-.067,4.888,4.888,0,0,1,.65-.067q.11,0,.3.449.291.681,2.877,7.322Q382.834,423.919,382.836,424Zm-5.659-6.7a20.434,20.434,0,0,0-1.092-3.157q-.458-1.179-.8-2.006a.708.708,0,0,0-1.314.024q-1.893,4.863-1.893,5.126,0,.413.923.486.048.012,1.189.011h1.251Q377.178,417.788,377.177,417.3Z" transform="translate(-366.663 -406.813)" fill="#f3b14e"/>
      </g>
      <g id="Group_105" data-name="Group 105" transform="translate(0 0)">
        <path id="Path_158" data-name="Path 158" d="M370.362,402.31a9.024,9.024,0,0,1-1.931,5.706,7.836,7.836,0,0,1-2.961,2.389,1.849,1.849,0,0,0-.661,2.988l.065.062a.222.222,0,0,1,.072.158q0,.328-.825.389h-1.093a14.581,14.581,0,0,1-1.687-.049q-.467-.11-.622-1.73a1.839,1.839,0,0,0-1.25-1.546,7.945,7.945,0,0,1-3.809-2.77,9.321,9.321,0,0,1,.485-11.764,7.878,7.878,0,0,1,11.887,0A8.958,8.958,0,0,1,370.362,402.31Zm-2.9,0a6.152,6.152,0,0,0-1.493-4.128,4.934,4.934,0,0,0-3.91-1.833,4.858,4.858,0,0,0-3.872,1.87,6.534,6.534,0,0,0,0,8.256,4.825,4.825,0,0,0,3.872,1.882,4.906,4.906,0,0,0,3.922-1.87A6.311,6.311,0,0,0,367.46,402.31Z" transform="translate(-353.801 -393.435)" fill="#544e43" stroke="#544e43" stroke-miterlimit="10" stroke-width="0.25"/>
      </g>
    </g>
  </g>
</symbol>


<symbol id="icon-QA1" viewBox="0 0 25.519 27.053">
<g id="Group_182" data-name="Group 182" transform="translate(-5413.875 802.125)">
    <g id="Group_106" data-name="Group 106" transform="translate(5414 -802)">
      <g id="Group_104" data-name="Group 104" transform="translate(9.221 9.591)">
        <path id="Path_157" data-name="Path 157" d="M382.836,424c0,.1-.1.146-.293.146q-.23,0-.674-.037c-.295-.025-.52-.036-.672-.036s-.385.011-.693.036-.538.037-.691.037q-.343,0-.869-1.84t-1.074-1.864q-.451-.024-2.343-.024h-1.919q-2,0-2.283.024-.438.037-.929,1.871t-.759,1.833h-2.732c-.162,0-.244-.057-.244-.17a2.046,2.046,0,0,1,.171-.546l2.974-8.134q.376-.983,2.283-5.67.34-.776.923-2.343c.1-.308.2-.462.315-.462a5.449,5.449,0,0,1,.68.061,5.584,5.584,0,0,0,.68.06,4.9,4.9,0,0,0,.662-.067,4.888,4.888,0,0,1,.65-.067q.11,0,.3.449.291.681,2.877,7.322Q382.834,423.919,382.836,424Zm-5.659-6.7a20.434,20.434,0,0,0-1.092-3.157q-.458-1.179-.8-2.006a.708.708,0,0,0-1.314.024q-1.893,4.863-1.893,5.126,0,.413.923.486.048.012,1.189.011h1.251Q377.178,417.788,377.177,417.3Z" transform="translate(-366.663 -406.813)" fill="#f3b14e"/>
      </g>
      <g id="Group_105" data-name="Group 105" transform="translate(0 0)">
        <path id="Path_158" data-name="Path 158" d="M370.362,402.31a9.024,9.024,0,0,1-1.931,5.706,7.836,7.836,0,0,1-2.961,2.389,1.849,1.849,0,0,0-.661,2.988l.065.062a.222.222,0,0,1,.072.158q0,.328-.825.389h-1.093a14.581,14.581,0,0,1-1.687-.049q-.467-.11-.622-1.73a1.839,1.839,0,0,0-1.25-1.546,7.945,7.945,0,0,1-3.809-2.77,9.321,9.321,0,0,1,.485-11.764,7.878,7.878,0,0,1,11.887,0A8.958,8.958,0,0,1,370.362,402.31Zm-2.9,0a6.152,6.152,0,0,0-1.493-4.128,4.934,4.934,0,0,0-3.91-1.833,4.858,4.858,0,0,0-3.872,1.87,6.534,6.534,0,0,0,0,8.256,4.825,4.825,0,0,0,3.872,1.882,4.906,4.906,0,0,0,3.922-1.87A6.311,6.311,0,0,0,367.46,402.31Z" transform="translate(-353.801 -393.435)" fill="#544e43" stroke="#544e43" stroke-miterlimit="10" stroke-width="0.25"/>
      </g>
    </g>
  </g>
</symbol>



  
<symbol id="icon-circle-down" viewBox="0 0 32 32">
<path d="M32 16c0-8.837-7.163-16-16-16s-16 7.163-16 16 7.163 16 16 16 16-7.163 16-16zM3 16c0-7.18 5.82-13 13-13s13 5.82 13 13-5.82 13-13 13-13-5.82-13-13z"></path>
<path d="M9.914 11.086l-2.829 2.829 8.914 8.914 8.914-8.914-2.828-2.828-6.086 6.086z"></path>
</symbol>


<symbol id="icon-keyboard_arrow_down" viewBox="0 0 24 24">
<path d="M7.406 8.578l4.594 4.594 4.594-4.594 1.406 1.406-6 6-6-6z"></path>
</symbol>


<symbol id="icon-arrow-right-circle" viewBox="0 0 24 24">
<path d="M23 12c0-3.037-1.232-5.789-3.222-7.778s-4.741-3.222-7.778-3.222-5.789 1.232-7.778 3.222-3.222 4.741-3.222 7.778 1.232 5.789 3.222 7.778 4.741 3.222 7.778 3.222 5.789-1.232 7.778-3.222 3.222-4.741 3.222-7.778zM21 12c0 2.486-1.006 4.734-2.636 6.364s-3.878 2.636-6.364 2.636-4.734-1.006-6.364-2.636-2.636-3.878-2.636-6.364 1.006-4.734 2.636-6.364 3.878-2.636 6.364-2.636 4.734 1.006 6.364 2.636 2.636 3.878 2.636 6.364zM8 13h5.586l-2.293 2.293c-0.391 0.391-0.391 1.024 0 1.414s1.024 0.391 1.414 0l4-4c0.092-0.092 0.166-0.202 0.217-0.324 0.101-0.245 0.101-0.521 0-0.766-0.049-0.118-0.121-0.228-0.217-0.324l-4-4c-0.391-0.391-1.024-0.391-1.414 0s-0.391 1.024 0 1.414l2.293 2.293h-5.586c-0.552 0-1 0.448-1 1s0.448 1 1 1z"></path>







</defs>
</svg>
